<?xml version="1.0" encoding="UTF-8" standalone="no"?>
<svg width="835px" height="1078px" viewBox="0 0 835 1078" version="1.1" xmlns="http://www.w3.org/2000/svg" xmlns:xlink="http://www.w3.org/1999/xlink" xmlns:sketch="http://www.bohemiancoding.com/sketch/ns">
    <!-- Generator: Sketch 3.0.3 (7891) - http://www.bohemiancoding.com/sketch -->
    <title>human</title>
    <desc>Created with Sketch.</desc>
    <defs>
        <path id="path-1" d="M36.359375,45.1640625 C74.9726562,45.234375 74,40.3594035 74,26 C74,11.6405965 57.4345357,0 37,0 C16.5654643,0 -2.84217094e-14,11.6405965 -2.84217094e-14,26 C-2.84217094e-14,40.3594035 -2.25390625,45.09375 36.359375,45.1640625 Z"></path>
    </defs>
    <g id="Page-1" stroke="none" stroke-width="1" fill="none" fill-rule="evenodd" sketch:type="MSPage">
        <g id="human" sketch:type="MSArtboardGroup">
            <g id="Left-Arm" sketch:type="MSLayerGroup" transform="translate(176.000000, 204.000000)" stroke="#979797" fill="#D8D8D8">
                <rect id="Rectangle-3" sketch:type="MSShapeGroup" transform="translate(153.500000, 69.000000) rotate(50.000000) translate(-153.500000, -69.000000) " x="131" y="-11" width="45" height="160" rx="40"></rect>
                <rect id="Rectangle-4" sketch:type="MSShapeGroup" transform="translate(66.500000, 76.500000) rotate(-50.000000) translate(-66.500000, -76.500000) " x="49" y="4" width="35" height="145" rx="40"></rect>
            </g>
            <g id="Left-Arm-2" sketch:type="MSLayerGroup" transform="translate(604.500000, 268.000000) scale(-1, 1) translate(-604.500000, -268.000000) translate(490.000000, 199.000000)" stroke="#979797" fill="#D8D8D8">
                <rect id="Rectangle-3" sketch:type="MSShapeGroup" transform="translate(153.500000, 69.000000) rotate(50.000000) translate(-153.500000, -69.000000) " x="131" y="-11" width="45" height="160" rx="40"></rect>
                <rect id="Rectangle-4" sketch:type="MSShapeGroup" transform="translate(66.500000, 76.500000) rotate(-50.000000) translate(-66.500000, -76.500000) " x="49" y="4" width="35" height="145" rx="40"></rect>
            </g>
            <rect id="neck" stroke="#979797" fill="#D8D8D8" sketch:type="MSShapeGroup" x="425" y="159" width="48" height="42"></rect>
            <g id="leg" sketch:type="MSLayerGroup" transform="translate(352.000000, 440.000000)" stroke="#979797" fill="#D8D8D8">
                <path d="M65,321 C78.254834,321 89,265.406638 89,221.5 C89,177.593362 78.254834,162 65,162 C51.745166,162 41,177.593362 41,221.5 C41,265.406638 51.745166,321 65,321 Z" id="Oval-4" sketch:type="MSShapeGroup"></path>
                <path d="M45.3306627,329.522453 C69.6659422,329.522453 75.5033636,335.627772 75.7703273,321.712404 C76.037291,307.797036 71.4360276,303.23787 47.1007481,303.23787 C31.6234245,303.23787 10.1303234,303.145807 3.45023297,307.461801 C-0.372905223,309.931924 -1.29413198,316.269386 0.170786517,327 C1.87361645,339.473329 20.9953833,329.522453 45.3306627,329.522453 Z M68.5,184 C89.2106781,184 106,110.810197 106,60 C106,9.18980302 89.2106781,0 68.5,0 C47.7893219,0 31,9.18980302 31,60 C31,110.810197 47.7893219,184 68.5,184 Z" id="feet" sketch:type="MSShapeGroup"></path>
            </g>
            <g id="leg-2" sketch:type="MSLayerGroup" transform="translate(513.000000, 605.500000) scale(-1, 1) translate(-513.000000, -605.500000) translate(460.000000, 439.000000)" stroke="#979797" fill="#D8D8D8">
                <path d="M65,321 C78.254834,321 89,265.406638 89,221.5 C89,177.593362 78.254834,162 65,162 C51.745166,162 41,177.593362 41,221.5 C41,265.406638 51.745166,321 65,321 Z" id="Oval-4" sketch:type="MSShapeGroup"></path>
                <path d="M45.3306627,329.522453 C69.6659422,329.522453 75.5033636,335.627772 75.7703273,321.712404 C76.037291,307.797036 71.4360276,303.23787 47.1007481,303.23787 C31.6234245,303.23787 10.1303234,303.145807 3.45023297,307.461801 C-0.372905223,309.931924 -1.29413198,316.269386 0.170786517,327 C1.87361645,339.473329 20.9953833,329.522453 45.3306627,329.522453 Z M68.5,184 C89.2106781,184 106,110.810197 106,60 C106,9.18980302 89.2106781,0 68.5,0 C47.7893219,0 31,9.18980302 31,60 C31,110.810197 47.7893219,184 68.5,184 Z" id="feet" sketch:type="MSShapeGroup"></path>
            </g>
            <path d="M397.483045,404.171875 L516.412151,404.132812 C516.412151,404.132812 545.824224,250.953852 542.693318,223.851263 C538.280086,185.648271 374.739943,184.559375 363.489943,219.418152 C356.155099,242.145593 397.483045,404.171875 397.483045,404.171875 Z" id="upper-body" stroke="#979797" fill="#D8D8D8" sketch:type="MSShapeGroup"></path>
            <rect id="hip" stroke="#979797" fill="#D8D8D8" sketch:type="MSShapeGroup" x="385" y="371" width="142" height="95" rx="40"></rect>
            <g id="head" sketch:type="MSLayerGroup" transform="translate(389.000000, 57.000000)">
                <path d="M58.8691406,113.089844 C86.4488281,112.894531 107,77.6142375 107,50 C107,22.3857625 85.7335256,0 59.5,0 C33.2664744,0 12,22.3857625 12,50 C12,77.6142375 31.2894531,113.285156 58.8691406,113.089844 Z" stroke="#979797" fill="#D8D8D8" sketch:type="MSShapeGroup"></path>
                <path d="M7.25390625,69.703125 C8.94921875,74.5234375 9.93070472,77.1328125 13.3378906,77.1328125 C19.6891652,77.1328125 12.9570313,71.88974 12.9570313,63.6054688 C12.9570313,55.3211975 14.1945384,51.6748912 8.01953125,52.0976563 C2.95578398,52.4443401 1.71875,55.0761719 2.08789063,59.6601563 C2.41311159,63.6987468 5.55859375,64.8828125 7.25390625,69.703125 Z" id="ear" stroke="#979797" fill="#D8D8D8" sketch:type="MSShapeGroup" transform="translate(9.000000, 64.500000) rotate(-8.000000) translate(-9.000000, -64.500000) "></path>
                <path d="M107.253906,72.703125 C108.949219,77.5234375 109.930705,80.1328125 113.337891,80.1328125 C119.689165,80.1328125 112.957031,74.88974 112.957031,66.6054688 C112.957031,58.3211975 114.194538,54.6748912 108.019531,55.0976563 C102.955784,55.4443401 101.71875,58.0761719 102.087891,62.6601563 C102.413112,66.6987468 105.558594,67.8828125 107.253906,72.703125 Z" id="ear-2" stroke="#979797" fill="#D8D8D8" sketch:type="MSShapeGroup" transform="translate(109.000000, 67.500000) scale(-1, 1) rotate(-8.000000) translate(-109.000000, -67.500000) "></path>
                <g id="brain" transform="translate(23.000000, 8.000000)">
                    <mask id="mask-2" sketch:name="Oval 8" fill="white">
                        <use xlink:href="#path-1"></use>
                    </mask>
                    <use id="Oval-8" stroke="#979797" fill="#D8D8D8" sketch:type="MSShapeGroup" xlink:href="#path-1"></use>
                    <g id="Group" mask="url(#mask-2)" sketch:type="MSShapeGroup">
                        <g transform="translate(-9.000000, -4.000000)">
                            <path d="M85.5568787,38.0299829 C97.1138787,36.5459829 92.8428787,14.3949829 82.1778787,12.9369829 C83.2238787,2.99498293 69.0508787,3.04098293 62.9058787,1.43598293 C54.5458787,-0.748017066 47.7938787,-0.460017066 39.6368787,2.43198293 C31.3038787,5.38398293 23.1808787,4.24498293 15.5028787,10.0719829 C10.3448787,13.9879829 4.85787873,23.1189829 2.20987873,29.0839829 C-0.129121266,34.3489829 -1.12812127,42.0229829 1.82687873,47.1649829 C4.49087873,51.8009829 9.51587873,54.2999829 11.9008787,58.9469829 C14.6768787,64.3559829 12.9458787,69.3059829 20.3758787,71.7579829 C26.0858787,73.6409829 34.8828787,67.3979829 33.8338787,76.0699829 C39.5618787,76.3469829 43.5538787,68.8069829 45.7948787,64.7759829 C50.3678787,56.5519829 52.6138787,61.0909829 60.9308787,60.7409829 C69.5878787,60.3769829 71.0178787,56.8289829 75.4608787,50.8479829 C79.2958787,45.6859829 85.9828787,46.9399829 85.0388787,37.5049829" id="Fill-1137" fill="#9C2528"></path>
                            <path d="M11.982154,29.3030448 C13.255154,28.0050448 15.021154,26.8770448 16.541154,28.4720448 C17.078154,29.0350448 17.474154,29.7460448 17.864154,30.4110448 C18.686154,31.8110448 19.350154,33.2930448 20.346154,34.5840448 C20.487154,34.7670448 21.200154,34.8270448 21.310154,34.5770448 C22.023154,32.9430448 23.299154,30.1890448 25.664154,31.0570448 C27.120154,31.5910448 28.190154,33.0860448 29.022154,34.3170448 C30.673154,36.7560448 31.908154,39.9620448 31.713154,42.9420448 C31.695154,43.2130448 32.693154,43.2330448 32.713154,42.9350448 C32.976154,38.9250448 30.762154,34.2700448 27.791154,31.6530448 C24.672154,28.9060448 21.716154,31.3390448 20.345154,34.4770448 C20.666154,34.4750448 20.987154,34.4730448 21.309154,34.4700448 C19.619154,32.2800448 18.869154,29.1700448 16.549154,27.5160448 C14.597154,26.1250448 12.353154,27.8390448 11.018154,29.2030448 C10.861154,29.3630448 11.768154,29.5210448 11.982154,29.3030448" id="Fill-1138" fill="#541618"></path>
                            <path d="M25.2246074,49.8310853 C29.9866074,50.9640853 34.7436074,50.0740853 37.4906074,45.6660853 C38.6076074,43.8730853 39.4366074,41.9200853 40.5836074,40.1430853 C41.1176074,39.3160853 41.7806074,38.4770853 42.7056074,38.0790853 C44.4016074,37.3490853 46.3256074,41.0480853 46.9126074,42.0580853 C47.0266074,42.2530853 47.8826074,42.3450853 47.8956074,42.0490853 C47.9456074,40.9590853 48.0716074,40.0400853 48.5656074,39.0460853 C49.6236074,36.9200853 52.2826074,38.0470853 53.7486074,39.0370853 C53.9096074,39.1460853 54.5496074,39.2810853 54.6636074,39.0300853 C56.0386074,35.9770853 58.1386074,33.3050853 61.8386074,35.1500853 C64.2216074,36.3390853 66.1096074,38.6170853 67.7376074,40.6510853 C67.9276074,40.8880853 68.8566074,40.7760853 68.7066074,40.5870853 C66.5806074,37.9320853 64.0426074,35.0400853 60.6186074,34.1650853 C57.1776074,33.2870853 54.9726074,36.0640853 53.7046074,38.8800853 C54.0096074,38.8780853 54.3146074,38.8760853 54.6196074,38.8730853 C50.9676074,36.4070853 47.1236074,37.0240853 46.8976074,42.0040853 C47.2246074,42.0010853 47.5526074,41.9980853 47.8806074,41.9950853 C46.2296074,39.1590853 43.3356074,35.6940853 40.3346074,39.0390853 C38.7786074,40.7740853 37.8976074,43.1380853 36.7526074,45.1440853 C34.4326074,49.2120853 30.2576074,50.5820853 25.7446074,49.5090853 C25.4546074,49.4400853 24.5966074,49.6820853 25.2246074,49.8310853" id="Fill-1139" fill="#541618"></path>
                            <path d="M43.9965794,16.6473969 C44.0775794,15.8093969 44.2545794,12.6183969 46.0005794,13.7053969 C46.8835794,14.2553969 47.5435794,15.1743969 48.1485794,15.9983969 C49.3195794,17.5913969 50.2665794,19.4543969 50.7825794,21.3653969 C50.8495794,21.6163969 51.6085794,21.6173969 51.7435794,21.4403969 C53.2935794,19.4053969 55.6155794,18.8283969 57.9765794,20.0253969 C59.2835794,20.6883969 60.1675794,22.0373969 59.5995794,23.4583969 C59.5185794,23.6593969 60.4735794,23.8413969 60.5955794,23.5363969 C61.4925794,21.2933969 59.0695794,19.7853969 57.2515794,19.2063969 C54.8205794,18.4333969 52.3135794,19.2583969 50.7905794,21.2593969 C51.1105794,21.2843969 51.4305794,21.3093969 51.7515794,21.3343969 C51.0345794,18.6753969 49.1545794,14.6083969 46.4965794,13.3343969 C43.9885794,12.1323969 43.2085794,14.3943969 43.0005794,16.5693969 C42.9725794,16.8503969 43.9685794,16.9353969 43.9965794,16.6473969" id="Fill-1140" fill="#541618"></path>
                            <path d="M32.8597369,12.0017308 C30.1597369,12.3557308 28.6307369,14.0977308 29.0767369,16.8617308 C29.2857369,18.1627308 30.0877369,19.3307308 30.9857369,20.2507308 C31.3907369,20.6657308 31.8717369,20.9757308 32.3607369,21.2777308 C33.2357369,21.8177308 32.4797369,21.5137308 31.6507369,21.8537308 C29.2757369,22.8267308 29.0307369,25.5487308 30.1337369,27.5587308 C31.1697369,29.4467308 33.3427369,30.2807308 35.3967369,30.1927308 C35.9127369,30.1707308 35.0587369,29.6977308 34.8087369,29.7087308 C32.1737369,29.8217308 30.3227369,27.6147308 30.4187369,25.1137308 C30.4947369,23.1617308 32.2937369,22.1847308 33.9857369,21.8417308 C34.2727369,21.7837308 33.8757369,21.5047308 33.7897369,21.4707308 C29.8147369,19.9067308 27.9067369,13.2117308 33.4477369,12.4867308 C33.9697369,12.4177308 33.1137369,11.9687308 32.8597369,12.0017308" id="Fill-1141" fill="#541618"></path>
                            <path d="M67.0012981,15.7467449 C67.0972981,15.4147449 67.6722981,12.9787449 68.5062981,13.6047449 C69.0362981,14.0027449 69.3582981,14.7797449 69.6332981,15.3577449 C70.2972981,16.7537449 70.6152981,18.3397449 70.6552981,19.8757449 C70.6622981,20.1377449 71.2382981,20.1197449 71.3942981,20.0997449 C74.1132981,19.7547449 76.2132981,21.2947449 77.5172981,23.5017449 C78.2122981,24.6777449 78.7532981,26.6837449 77.4372981,27.6347449 C77.1272981,27.8587449 78.0702981,28.0497449 78.2852981,27.8937449 C80.2112981,26.5027449 78.8042981,23.7287449 77.6892981,22.2887449 C76.0602981,20.1877449 73.4682981,19.3967449 70.9142981,19.7207449 C71.1602981,19.7957449 71.4072981,19.8697449 71.6532981,19.9447449 C71.6032981,18.0617449 71.0372981,14.1447449 69.0492981,13.2247449 C67.1962981,12.3657449 66.4532981,14.1387449 66.0032981,15.6787449 C65.9362981,15.9077449 66.9112981,16.0537449 67.0012981,15.7467449" id="Fill-1142" fill="#541618"></path>
                            <path d="M75.981717,20.6146877 C77.569717,18.4106877 81.021717,15.9476877 83.357717,18.6086877 C83.557717,18.8376877 84.481717,18.6716877 84.320717,18.4886877 C81.551717,15.3346877 77.006717,17.7586877 75.016717,20.5236877 C74.863717,20.7356877 75.806717,20.8586877 75.981717,20.6146877" id="Fill-1143" fill="#541618"></path>
                            <path d="M50.1330188,38.7637205 C50.1370188,35.4507205 49.0340188,28.6757205 54.3550188,29.5237205 C54.9320188,29.6157205 55.0270188,29.2257205 54.4390188,29.1317205 C52.6220188,28.8427205 50.8280188,28.9027205 49.8050188,30.6357205 C48.5230188,32.8077205 49.1570188,36.1657205 49.1550188,38.5557205 C49.1550188,38.8747205 50.1330188,39.0037205 50.1330188,38.7637205" id="Fill-1144" fill="#541618"></path>
                        </g>
                    </g>
                </g>
            </g>
            <path d="M445.601562,291.480469 C458.964844,284.398438 455.714844,276.240417 455.714844,259.671875 C455.714844,243.103333 450.088074,241.265625 433.519531,241.265625 C416.950989,241.265625 413.792969,242.673645 413.792969,259.242188 C413.792969,275.81073 432.238281,298.5625 445.601562,291.480469 Z" id="heart" fill="#541618" sketch:type="MSShapeGroup"></path>
            <g id="lungs" sketch:type="MSLayerGroup" transform="translate(389.000000, 216.000000)" fill="#9C2528">
                <path d="M55.8554265,22.5573765 C52.2404503,14.6172099 57.3121646,-1.84407585 39.9765455,1.74185272 C28.4896646,4.11940034 19.7840932,17.8937813 14.9941408,27.0742813 C8.88542649,38.7819241 8.06192649,48.6247099 6.23483125,60.9104003 C4.89137887,69.9384003 -2.4460497,84.3358527 0.837783629,93.4088765 C4.94947411,104.7694 21.0026408,98.1291146 29.650117,97.3143289 C40.7971408,96.2671622 48.7445693,96.7115908 51.7524503,84.9937813 C54.366736,74.8198527 53.4619027,63.6103765 54.4756646,53.1082099 C55.361617,43.950948 53.1946646,31.2760194 56.5438551,23.2080432" id="Fill-1147" sketch:type="MSShapeGroup"></path>
                <path d="M63.1814762,21.1064104 C67.0041429,13.1662437 61.6419524,-3.29649439 79.9797143,0.289434182 C92.128881,2.66552942 101.335524,16.4413628 106.401429,25.6218628 C112.865976,37.330958 113.7345,47.1722913 115.670524,59.4579818 C117.090952,68.483077 124.851024,82.8848866 121.378381,91.9579104 C117.027048,103.318434 100.047262,96.6766961 90.9030714,95.8619104 C79.1111905,94.8132913 70.7062619,95.2606247 67.5226429,83.5413628 C64.7587619,73.3659818 65.7144286,62.1565056 64.6425714,51.6572437 C63.7086905,42.4985294 66.0005476,29.8221485 62.452381,21.7556247" id="Fill-1148" sketch:type="MSShapeGroup"></path>
            </g>
            <path d="M430.719161,379.765589 C427.003694,382.897147 424,388.703957 424,393.323077 C424,396.7299 424.944763,400.845935 426.61908,404.056809 C426.550398,404.452198 426.514603,404.859861 426.514603,405.279078 C426.514603,410.699965 432.49978,416 438.186441,416 C443.873101,416 448.483051,411.605503 448.483051,406.184615 C448.483051,402.680438 446.556734,399.605148 443.658479,397.86852 L443.658479,397.86852 C444.111419,396.308011 444.364407,394.753068 444.364407,393.323077 C444.364407,392.065543 444.262661,390.719982 444.059816,389.364338 C448.093781,388.179166 451,384.843074 451,380.912821 C451,375.990406 446.441272,372 440.817797,372 C435.638409,372 431.362242,375.385044 430.719161,379.765589 Z" id="Oval-15" fill="#541618" sketch:type="MSShapeGroup"></path>
            <path d="M464.719161,377.765589 C461.003694,380.897147 458,386.703957 458,391.323077 C458,394.7299 458.944763,398.845935 460.61908,402.056809 C460.550398,402.452198 460.514603,402.859861 460.514603,403.279078 C460.514603,408.699965 466.49978,414 472.186441,414 C477.873101,414 482.483051,409.605503 482.483051,404.184615 C482.483051,400.680438 480.556734,397.605148 477.658479,395.86852 L477.658479,395.86852 C478.111419,394.308011 478.364407,392.753068 478.364407,391.323077 C478.364407,390.065543 478.262661,388.719982 478.059816,387.364338 C482.093781,386.179166 485,382.843074 485,378.912821 C485,373.990406 480.441272,370 474.817797,370 C469.638409,370 465.362242,373.385044 464.719161,377.765589 Z" id="Oval-16" fill="#541618" sketch:type="MSShapeGroup" transform="translate(471.500000, 392.000000) scale(-1, 1) translate(-471.500000, -392.000000) "></path>
            <g id="Stomach" sketch:type="MSLayerGroup" transform="translate(459.500000, 347.000000) scale(-1, 1) translate(-459.500000, -347.000000) translate(418.000000, 312.000000)">
                <path d="M31.906649,1.91801455 C34.9534477,3.20079117 35.1952961,7.73381327 33.6151114,10.4717652 C31.1345319,14.7686583 27.8924569,13.7677657 24.6364921,11.7561759 C18.6556482,8.05818417 11.0219017,6.22798059 5.7020555,13.0275137 C-3.81173493,25.1828435 -0.48713743,46.2171119 8.81258454,57.0872139 C18.1678663,68.0210462 35.1675162,71.3366561 49.0133331,69.5113549 C55.5367016,68.6518128 64.85685,64.9007125 68.1495823,58.7973104 C69.9618107,55.4375795 67.9011976,38.4199544 75.5284076,44.7799118 C77.903587,46.7629047 76.5325684,52.0108501 79.7836309,52.8295394 C84.6688038,54.0616586 82.2911733,47.8373323 81.4095707,45.9785318 C80.2983757,43.6360346 78.3243704,40.4217396 75.9663492,39.0180388 C72.1057635,36.7221137 70.3196809,39.5858921 66.6216892,39.0621597 C65.2351465,31.5223746 52.6868132,37.0236071 48.1578764,37.4125254 C43.2114244,37.837394 34.1249538,35.007932 32.7392282,29.3106063 C31.4450128,23.9964794 39.8279989,18.4388701 40.8975241,13.0471231 C41.7791266,8.60070881 39.4766652,-3.85856552 32.4532589,1.17939668 C32.3282495,1.37630697 32.143595,1.48007298 31.906649,1.4906947" id="Fill-1145" fill="#9C2528" sketch:type="MSShapeGroup"></path>
                <path d="M10.6601188,44.975619 C11.5147585,54.3848264 19.6403722,60.8003436 28.1941228,63.3658968 C44.4453502,68.4978204 59.413801,61.6549833 62.4074911,44.1209793 C50.8608674,53.5293696 23.0621993,47.1146695 9.80466207,44.1209793" id="Fill-1146" fill="#541618" sketch:type="MSShapeGroup"></path>
            </g>
        </g>
    </g>
</svg>